<svg width="24" height="24" viewBox="0 0 24 24" fill="none" xmlns="http://www.w3.org/2000/svg">
<g clip-path="url(#clip0_285_2663)">
<path d="M23.9245 10.6678C23.8866 10.3304 23.4932 10.0767 23.1529 10.0767C22.0534 10.0767 21.0775 9.4313 20.6683 8.43241C20.2505 7.40955 20.5201 6.21688 21.3393 5.46533C21.5973 5.22941 21.6288 4.83438 21.4125 4.56016C20.8495 3.84545 20.2099 3.19977 19.5114 2.64023C19.2381 2.42102 18.8366 2.45153 18.5994 2.71402C17.8842 3.50616 16.5993 3.80051 15.6065 3.38628C14.5736 2.95171 13.9217 1.90476 13.9858 0.781012C14.0068 0.42781 13.7486 0.120899 13.3966 0.0799012C12.5002 -0.0238902 11.5959 -0.0269002 10.6968 0.0728434C10.3493 0.111246 10.0913 0.410892 10.1028 0.759631C10.1417 1.87238 9.48246 2.90085 8.4596 3.31985C7.47867 3.72059 6.20276 3.42842 5.48899 2.64324C5.25307 2.38459 4.85856 2.35283 4.58341 2.56737C3.86434 3.13168 3.21035 3.77778 2.64219 4.48668C2.42081 4.76224 2.4535 5.16163 2.71371 5.39838C3.54912 6.15492 3.81846 7.35786 3.38472 8.39266C2.97059 9.3792 1.94627 10.0147 0.773741 10.0147C0.393242 10.0025 0.12245 10.2581 0.0804146 10.6041C-0.0250374 11.5054 -0.0261791 12.4241 0.0753288 13.3327C0.113213 13.6715 0.518311 13.9231 0.862275 13.9231C1.90745 13.8965 2.91029 14.5431 3.33158 15.5672C3.75079 16.5901 3.48093 17.7823 2.66036 18.5348C2.40368 18.7708 2.37088 19.1649 2.5876 19.4388C3.14486 20.149 3.78504 20.7951 4.48563 21.3594C4.76068 21.5809 5.16069 21.5499 5.3991 21.2871C6.11713 20.4931 7.40176 20.1992 8.39058 20.6143C9.42642 21.0477 10.078 22.0946 10.0144 23.2186C9.99353 23.5718 10.2524 23.8797 10.6031 23.9198C11.0619 23.9734 11.523 24 11.9856 24C12.4246 24 12.8638 23.976 13.3029 23.9271C13.6508 23.8887 13.9084 23.5888 13.8967 23.2399C13.8565 22.1277 14.5173 21.0991 15.5389 20.6809C16.5264 20.2776 17.7966 20.5728 18.5108 21.3568C18.7479 21.615 19.14 21.6463 19.4163 21.4326C20.1342 20.8697 20.7869 20.2239 21.3575 19.5132C21.5791 19.2381 21.5477 18.8382 21.286 18.6011C20.4508 17.845 20.18 16.6416 20.6138 15.6078C21.0215 14.6346 22.0077 13.9811 23.0684 13.9811L23.2169 13.985C23.5612 14.013 23.8777 13.7478 23.9193 13.3964C24.0253 12.4944 24.0264 11.5767 23.9245 10.6678ZM12 18.9181C8.17915 18.9181 5.08192 15.8209 5.08192 12.0001C5.08192 8.17937 8.17926 5.08213 12 5.08213C15.8208 5.08213 18.9181 8.17937 18.9181 12.0001C18.9181 13.297 18.5606 14.51 17.9396 15.5473L14.9103 12.518C15.1297 12.0009 15.2455 11.4403 15.2454 10.8618C15.2454 9.72887 14.8042 8.66387 14.003 7.86291C13.202 7.06195 12.137 6.62084 11.0044 6.62084C10.6263 6.62084 10.2501 6.67107 9.88611 6.77019C9.72668 6.81368 9.59632 6.94508 9.55387 7.10482C9.51049 7.26818 9.55937 7.4356 9.68704 7.56337C9.68704 7.56337 11.1826 9.07042 11.6829 9.57069C11.7354 9.62311 11.7353 9.74817 11.7279 9.79322L11.7232 9.82612C11.6728 10.3762 11.5755 11.0365 11.4953 11.2903C11.4845 11.301 11.4743 11.31 11.4633 11.321C11.4518 11.3326 11.4412 11.3437 11.4301 11.3551C11.173 11.4376 10.5025 11.536 9.94371 11.586L9.94382 11.583L9.9187 11.5893C9.91424 11.5898 9.90593 11.5905 9.89493 11.5905C9.83452 11.5905 9.74568 11.5736 9.66493 11.4929C9.1441 10.9721 7.70721 9.54547 7.70721 9.54547C7.57831 9.41698 7.44608 9.38999 7.35796 9.38999C7.15255 9.38999 6.96864 9.53841 6.91072 9.75129C6.51517 11.2151 6.93449 12.7896 8.0053 13.8605C8.80647 14.6616 9.87158 15.1027 11.0045 15.1027C11.583 15.1027 12.1436 14.9869 12.6606 14.7676L15.7227 17.8298C14.6476 18.5177 13.371 18.9181 12 18.9181Z" fill="white"/>
</g>
<defs>
<clipPath id="clip0_285_2663">
<rect width="24" height="24" fill="white"/>
</clipPath>
</defs>
</svg>
